<?xml version="1.0" encoding="us-ascii" standalone="no"?><svg xmlns="http://www.w3.org/2000/svg" xmlns:xlink="http://www.w3.org/1999/xlink" contentStyleType="text/css" height="365px" preserveAspectRatio="none" style="width:809px;height:365px;background:#FFFFFF;" version="1.1" viewBox="0 0 809 365" width="809px" zoomAndPan="magnify"><defs/><g><!--cluster fastapi--><g id="cluster_fastapi"><rect fill="#D3D3D3" height="230.5" rx="2.5" ry="2.5" style="stroke:#000000;stroke-width:1.0;" width="393" x="212.5" y="129"/><text fill="#000000" font-family="sans-serif" font-size="14" font-weight="bold" lengthAdjust="spacing" textLength="144" x="337" y="143.9951">Uvicorn + FastAPI</text></g><!--entity fast_nn--><g id="elem_fast_nn"><rect fill="#87CEFA" height="36.2969" rx="2.5" ry="2.5" style="stroke:#000000;stroke-width:0.5;" width="164" x="398.5" y="172"/><text fill="#000000" font-family="sans-serif" font-size="14" lengthAdjust="spacing" textLength="144" x="408.5" y="194.9951">Fast Neural Network</text></g><!--entity coarse_detection--><g id="elem_coarse_detection"><rect fill="#87CEFA" height="52.5938" rx="2.5" ry="2.5" style="stroke:#000000;stroke-width:0.5;" width="154" x="236.5" y="282.5"/><text fill="#000000" font-family="sans-serif" font-size="14" lengthAdjust="spacing" textLength="126" x="246.5" y="305.4951">Coarse Detection</text><text fill="#000000" font-family="sans-serif" font-size="14" lengthAdjust="spacing" textLength="134" x="246.5" y="321.792">(Faster Neural Net)</text></g><!--entity cnn_model--><g id="elem_cnn_model"><rect fill="#87CEFA" height="52.5938" rx="2.5" ry="2.5" style="stroke:#000000;stroke-width:0.5;" width="148" x="425.5" y="282.5"/><text fill="#000000" font-family="sans-serif" font-size="14" lengthAdjust="spacing" textLength="128" x="435.5" y="305.4951">Precise Validation</text><text fill="#000000" font-family="sans-serif" font-size="14" lengthAdjust="spacing" textLength="87" x="435.5" y="321.792">(CNN Model)</text></g><!--entity solicitud--><g id="elem_solicitud"><rect fill="#FFFF00" height="36.2969" rx="2.5" ry="2.5" style="stroke:#000000;stroke-width:0.5;" width="169" x="9" y="11"/><text fill="#000000" font-family="sans-serif" font-size="14" lengthAdjust="spacing" textLength="149" x="19" y="33.9951">Solicitud del Servicio</text></g><!--entity Docker Container (8080)--><g id="elem_Docker Container (8080)"><ellipse cx="93.5" cy="190" fill="#87CEFA" rx="8" ry="8" style="stroke:#000000;stroke-width:0.5;"/><text fill="#000000" font-family="sans-serif" font-size="14" lengthAdjust="spacing" textLength="175" x="6" y="219.9951">Docker Container (8080)</text></g><!--entity container--><g id="elem_container"><polygon fill="#87CEFA" points="577,16,587,6,792,6,792,42.2969,782,52.2969,577,52.2969,577,16" style="stroke:#000000;stroke-width:0.5;"/><line style="stroke:#000000;stroke-width:0.5;" x1="782" x2="792" y1="16" y2="6"/><line style="stroke:#000000;stroke-width:0.5;" x1="577" x2="782" y1="16" y2="16"/><line style="stroke:#000000;stroke-width:0.5;" x1="782" x2="782" y1="16" y2="52.2969"/><text fill="#000000" font-family="sans-serif" font-size="14" lengthAdjust="spacing" textLength="175" x="592" y="38.9951">Docker Container (8080)</text></g><!--entity /face Endpoint--><g id="elem_/face Endpoint"><ellipse cx="480.5" cy="29" fill="#87CEFA" rx="8" ry="8" style="stroke:#000000;stroke-width:0.5;"/><text fill="#000000" font-family="sans-serif" font-size="14" lengthAdjust="spacing" textLength="106" x="427.5" y="58.9951">/face Endpoint</text></g><!--entity /super Endpoint--><g id="elem_/super Endpoint"><ellipse cx="708.5" cy="309" fill="#87CEFA" rx="8" ry="8" style="stroke:#000000;stroke-width:0.5;"/><text fill="#000000" font-family="sans-serif" font-size="14" lengthAdjust="spacing" textLength="115" x="651" y="338.9951">/super Endpoint</text></g><!--link solicitud to Docker Container (8080)--><g id="link_solicitud_Docker Container (8080)"><path d="M93.5,47.016 C93.5,78.861 93.5,146.839 93.5,175.651 " fill="none" id="solicitud-to-Docker Container (8080)" style="stroke:#181818;stroke-width:1.0;"/><polygon fill="#181818" points="93.5,180.869,97.5,171.869,93.5,175.869,89.5,171.869,93.5,180.869" style="stroke:#181818;stroke-width:1.0;"/><text fill="#000000" font-family="sans-serif" font-size="13" lengthAdjust="spacing" textLength="53" x="94.5" y="101.0669">Request</text></g><!--link container to fastapi--><g id="link_container_fastapi"><path d="M672.403,52.108 C660.637,73.611 642.308,107.1087 626.7268,135.5849 C618.9361,149.8229 611.8324,162.8056 606.5795,172.4058 C606.2512,173.0058 605.9301,173.5926 605.6166,174.1657 " fill="none" id="container-to-fastapi" style="stroke:#181818;stroke-width:1.0;"/><polygon fill="#181818" points="605.6166,174.1657,613.4457,168.1903,608.0166,169.7794,606.4276,164.3503,605.6166,174.1657" style="stroke:#181818;stroke-width:1.0;"/></g><!--link fastapi to /face Endpoint--><g id="link_fastapi_/face Endpoint"><path d="M595.8702,128.8918 C595.7314,128.3856 595.5882,127.8808 595.4403,127.3777 C595.1445,126.3714 594.8303,125.3718 594.4966,124.3806 C593.1619,120.4155 591.5165,116.5846 589.5,113 C567.398,73.712 518.282,47.106 494.263,35.937 " fill="none" id="fastapi-to-/face Endpoint" style="stroke:#181818;stroke-width:1.0;"/><polygon fill="#181818" points="489.537,33.788,496.0763,41.1526,494.0892,35.8563,499.3855,33.8691,489.537,33.788" style="stroke:#181818;stroke-width:1.0;"/></g><!--link /face Endpoint to fast_nn--><g id="link_/face Endpoint_fast_nn"><path d="M480.5,38.103 C480.5,61.687 480.5,130.884 480.5,166.798 " fill="none" id="/face Endpoint-to-fast_nn" style="stroke:#181818;stroke-width:1.0;"/><polygon fill="#181818" points="480.5,171.846,484.5,162.846,480.5,166.846,476.5,162.846,480.5,171.846" style="stroke:#181818;stroke-width:1.0;"/></g><!--link fast_nn to coarse_detection--><g id="link_fast_nn_coarse_detection"><path d="M456.217,208.013 C429.551,226.695 386.286,257.006 354.373,279.364 " fill="none" id="fast_nn-to-coarse_detection" style="stroke:#181818;stroke-width:1.0;"/><polygon fill="#181818" points="350.146,282.326,359.8121,280.4377,354.241,279.457,355.2217,273.8858,350.146,282.326" style="stroke:#181818;stroke-width:1.0;"/></g><!--link fastapi to /super Endpoint--><g id="link_fastapi_/super Endpoint"><path d="M605.6936,199.6369 C605.7883,199.7368 605.8837,199.8373 605.9798,199.9387 C606.172,200.1413 606.367,200.3468 606.5647,200.5552 C606.9602,200.972 607.3665,201.4003 607.7833,201.8397 C608.617,202.7184 609.4926,203.6413 610.4069,204.605 C617.7213,212.3147 627.5095,222.6319 638.0775,233.7711 C659.2135,256.0495 683.4685,281.6155 697.289,296.1829 " fill="none" id="fastapi-to-/super Endpoint" style="stroke:#181818;stroke-width:1.0;"/><polygon fill="#181818" points="700.75,299.8309,697.4573,290.5488,697.3086,296.2037,691.6537,296.055,700.75,299.8309" style="stroke:#181818;stroke-width:1.0;"/></g><!--link /super Endpoint to fast_nn--><g id="link_/super Endpoint_fast_nn"><path d="M699.194,303.2246 C668.947,287.7032 572.25,238.082 518.115,210.303 " fill="none" id="/super Endpoint-to-fast_nn" style="stroke:#181818;stroke-width:1.0;"/><polygon fill="#181818" points="513.653,208.013,519.834,215.6808,518.1015,210.2958,523.4865,208.5633,513.653,208.013" style="stroke:#181818;stroke-width:1.0;"/></g><!--link fast_nn to cnn_model--><g id="link_fast_nn_cnn_model"><path d="M483.263,208.013 C486.197,226.085 490.899,255.039 494.49,277.149 " fill="none" id="fast_nn-to-cnn_model" style="stroke:#181818;stroke-width:1.0;"/><polygon fill="#181818" points="495.331,282.326,497.8368,272.8013,494.5296,277.3906,489.9402,274.0834,495.331,282.326" style="stroke:#181818;stroke-width:1.0;"/></g><!--link cnn_model to /super Endpoint--><g id="link_cnn_model_/super Endpoint"><path d="M573.772,309 C621.456,309 678.524,309 699.37,309 " fill="none" id="cnn_model-to-/super Endpoint" style="stroke:#181818;stroke-width:1.0;"/></g><!--SRC=[VP3HIyCm4CRVyrSSzMKYmpqE7mJNgGWwXaD144PeRZCqkwj9wXZY_sxQjTbMtVhIo-MxNxxlNAwfa5QkW5WXV0i8tqXc-T9oIIfbmnOUzVB3Zqo9uaS85oSiPbxIqfmSkxToixrbgz1kRqOcI0zXNllJe5c-gIqSPUti93CsEjE-LA3Gm0pjLpXo0jA1YrTdRsWChyMkq-zVGpBcB4SBAPENcaBL6mw6W_C4hk0PFqjqNjIhEYuChsHjSz_LIt31bk02xgJpDzE7Mhe8jInq4trFNebWWgML9lpyccqU1-P4NNdAqZg4CVhGqqplrAi8mTUEqPghb7FLAhkaQQXrGBrAevLiMEba0ayXjsaOHFDLTQms7zFM6sm2YJPOlTNBXSmGRaaLhCadejk8arMovb_t_fZjS5rPX7VtmPtESNAC4Al_cRy0]--></g></svg>