<?xml version="1.0" encoding="UTF-8" standalone="no"?>
<!DOCTYPE svg PUBLIC "-//W3C//DTD SVG 1.1//EN"
 "http://www.w3.org/Graphics/SVG/1.1/DTD/svg11.dtd">
<!-- Generated by graphviz version 2.40.1 (20161225.0304)
 -->
<!-- Title: G Pages: 1 -->
<svg width="1340pt" height="184pt"
 viewBox="0.00 0.00 1340.00 184.00" xmlns="http://www.w3.org/2000/svg" xmlns:xlink="http://www.w3.org/1999/xlink">
<g id="graph0" class="graph" transform="scale(1 1) rotate(0) translate(4 180)">
<title>G</title>
<polygon fill="#ffffff" stroke="transparent" points="-4,4 -4,-180 1336,-180 1336,4 -4,4"/>
<g id="clust1" class="cluster">
<title>cluster_face</title>
<polygon fill="#ffddc1" stroke="#ffddc1" points="8,-91 8,-168 640.5,-168 640.5,-91 8,-91"/>
<text text-anchor="middle" x="324.25" y="-152.8" font-family="Times,serif" font-size="14.00" fill="#000000">/face Endpoint</text>
</g>
<g id="clust2" class="cluster">
<title>cluster_super</title>
<polygon fill="#b6e3ff" stroke="#b6e3ff" points="493,-8 493,-83 1324,-83 1324,-8 493,-8"/>
<text text-anchor="middle" x="908.5" y="-67.8" font-family="Times,serif" font-size="14.00" fill="#000000">/super Endpoint</text>
</g>
<!-- input_data -->
<g id="node1" class="node">
<title>input_data</title>
<polygon fill="none" stroke="#000000" points="154,-137 16,-137 16,-99 154,-99 154,-137"/>
<text text-anchor="middle" x="85" y="-121.8" font-family="Times,serif" font-size="14.00" fill="#000000">input_data:</text>
<text text-anchor="middle" x="85" y="-106.8" font-family="Times,serif" font-size="14.00" fill="#000000">Imagen (Base64)</text>
</g>
<!-- detection_nn -->
<g id="node2" class="node">
<title>detection_nn</title>
<polygon fill="none" stroke="#000000" points="465,-135 190,-135 190,-99 465,-99 465,-135"/>
<text text-anchor="middle" x="327.5" y="-113.3" font-family="Times,serif" font-size="14.00" fill="#000000">Red Neuronal de Detección (Faster)</text>
</g>
<!-- input_data&#45;&gt;detection_nn -->
<g id="edge1" class="edge">
<title>input_data&#45;&gt;detection_nn</title>
<path fill="none" stroke="#000000" d="M154.1662,-111.5519C162.405,-111.3204 171.04,-111.1371 179.8711,-111.0028"/>
<polygon fill="#000000" stroke="#000000" points="179.9608,-114.502 189.9144,-110.8721 179.8697,-107.5026 179.9608,-114.502"/>
</g>
<!-- input_data&#45;&gt;detection_nn -->
<g id="edge3" class="edge">
<title>input_data&#45;&gt;detection_nn</title>
<path fill="none" stroke="#000000" d="M154.1662,-123.8777C162.405,-124.0412 171.04,-124.1533 179.8711,-124.2147"/>
<polygon fill="#000000" stroke="#000000" points="179.8978,-127.7148 189.9144,-124.2626 179.9312,-120.7149 179.8978,-127.7148"/>
</g>
<!-- coordinates -->
<g id="node3" class="node">
<title>coordinates</title>
<polygon fill="none" stroke="#000000" points="632.5,-135 522.5,-135 522.5,-99 632.5,-99 632.5,-135"/>
<text text-anchor="middle" x="577.5" y="-113.3" font-family="Times,serif" font-size="14.00" fill="#000000">Coordenadas</text>
</g>
<!-- detection_nn&#45;&gt;coordinates -->
<g id="edge2" class="edge">
<title>detection_nn&#45;&gt;coordinates</title>
<path fill="none" stroke="#000000" d="M465.2974,-117C481.5107,-117 497.4338,-117 511.9601,-117"/>
<polygon fill="#000000" stroke="#000000" points="512.2749,-120.5001 522.2749,-117 512.2749,-113.5001 512.2749,-120.5001"/>
</g>
<!-- cropping -->
<g id="node4" class="node">
<title>cropping</title>
<polygon fill="none" stroke="#000000" points="654,-52 501,-52 501,-16 654,-16 654,-52"/>
<text text-anchor="middle" x="577.5" y="-30.3" font-family="Times,serif" font-size="14.00" fill="#000000">Recorte de Imagen</text>
</g>
<!-- detection_nn&#45;&gt;cropping -->
<g id="edge4" class="edge">
<title>detection_nn&#45;&gt;cropping</title>
<path fill="none" stroke="#000000" d="M381.7463,-98.9902C420.4345,-86.1458 472.6057,-68.8249 513.3598,-55.2945"/>
<polygon fill="#000000" stroke="#000000" points="514.5407,-58.5904 522.9285,-52.1177 512.335,-51.947 514.5407,-58.5904"/>
</g>
<!-- validation_cnn -->
<g id="node5" class="node">
<title>validation_cnn</title>
<polygon fill="none" stroke="#000000" points="947,-52 690,-52 690,-16 947,-16 947,-52"/>
<text text-anchor="middle" x="818.5" y="-30.3" font-family="Times,serif" font-size="14.00" fill="#000000">Red Neuronal Convolutiva (CNN)</text>
</g>
<!-- cropping&#45;&gt;validation_cnn -->
<g id="edge5" class="edge">
<title>cropping&#45;&gt;validation_cnn</title>
<path fill="none" stroke="#000000" d="M654.085,-34C662.3074,-34 670.8458,-34 679.5149,-34"/>
<polygon fill="#000000" stroke="#000000" points="679.7407,-37.5001 689.7406,-34 679.7406,-30.5001 679.7407,-37.5001"/>
</g>
<!-- validation_cnn&#45;&gt;coordinates -->
<g id="edge8" class="edge">
<title>validation_cnn&#45;&gt;coordinates</title>
<path fill="none" stroke="#000000" d="M765.8931,-52.1177C728.6827,-64.9329 678.6508,-82.1638 639.4985,-95.6478"/>
<polygon fill="#000000" stroke="#000000" points="638.1087,-92.4246 629.7934,-98.9902 640.3881,-99.0431 638.1087,-92.4246"/>
</g>
<!-- score -->
<g id="node6" class="node">
<title>score</title>
<polygon fill="none" stroke="#000000" points="1081,-52 983,-52 983,-16 1081,-16 1081,-52"/>
<text text-anchor="middle" x="1032" y="-30.3" font-family="Times,serif" font-size="14.00" fill="#000000">Puntuación</text>
</g>
<!-- validation_cnn&#45;&gt;score -->
<g id="edge6" class="edge">
<title>validation_cnn&#45;&gt;score</title>
<path fill="none" stroke="#000000" d="M947.0057,-34C955.8232,-34 964.4339,-34 972.5832,-34"/>
<polygon fill="#000000" stroke="#000000" points="972.6396,-37.5001 982.6396,-34 972.6395,-30.5001 972.6396,-37.5001"/>
</g>
<!-- reco -->
<g id="node7" class="node">
<title>reco</title>
<polygon fill="none" stroke="#000000" points="1316,-52 1117,-52 1117,-16 1316,-16 1316,-52"/>
<text text-anchor="middle" x="1216.5" y="-30.3" font-family="Times,serif" font-size="14.00" fill="#000000">Resultado (TRUE/FALSE)</text>
</g>
<!-- score&#45;&gt;reco -->
<g id="edge7" class="edge">
<title>score&#45;&gt;reco</title>
<path fill="none" stroke="#000000" d="M1081.4426,-34C1089.3447,-34 1097.7853,-34 1106.4435,-34"/>
<polygon fill="#000000" stroke="#000000" points="1106.6881,-37.5001 1116.6881,-34 1106.688,-30.5001 1106.6881,-37.5001"/>
</g>
</g>

<g transform="translate(0.000000,17.000000) scale(0.100000,-0.100000)"
fill="#000000" stroke="none">
<path d="M21 157 c-29 -35 -16 -97 20 -97 15 0 19 -5 15 -16 -3 -9 -6 -20 -6
-25 0 -5 -4 -9 -10 -9 -14 0 -12 27 3 33 6 3 2 6 -10 6 -30 1 -31 -35 -3 -44
28 -9 47 9 55 51 3 20 9 42 12 50 3 8 -1 14 -11 14 -9 0 -16 -8 -16 -19 0 -26
-15 -34 -30 -16 -13 16 -6 48 16 70 14 13 13 15 -4 15 -11 0 -25 -6 -31 -13z"/>
<path d="M80 150 c0 -13 5 -20 13 -17 6 2 12 10 12 17 0 7 -6 15 -12 18 -8 2
-13 -5 -13 -18z"/>
<path d="M347 164 c-13 -13 -7 -24 14 -24 11 0 19 5 17 12 -5 14 -22 21 -31
12z"/>
<path d="M103 85 c-9 -40 -8 -45 8 -45 13 0 19 9 21 33 2 24 7 31 21 29 10 -2
17 3 17 13 0 10 -9 15 -28 15 -26 0 -30 -5 -39 -45z"/>
<path d="M175 101 c-24 -48 -13 -59 64 -60 63 -1 69 1 79 25 15 31 15 64 1 64
-6 0 -8 -8 -5 -18 4 -10 -1 -27 -10 -38 -14 -18 -15 -17 -9 19 5 29 3 37 -9
37 -9 0 -18 -13 -22 -35 -3 -19 -10 -35 -14 -35 -4 0 -4 16 0 35 8 35 8 35
-26 35 -27 0 -36 -6 -49 -29z m47 -6 c-5 -28 -22 -44 -22 -21 0 21 11 46 20
46 4 0 5 -11 2 -25z"/>
<path d="M340 116 c0 -7 -3 -28 -6 -45 -6 -26 -3 -31 13 -31 10 0 25 6 32 12
11 10 13 10 7 1 -5 -9 3 -13 28 -13 25 0 36 4 36 15 0 8 -4 15 -10 15 -5 0
-10 -4 -10 -10 0 -5 -5 -10 -11 -10 -6 0 -2 12 9 28 36 51 36 52 -2 52 -25 0
-36 -4 -36 -15 0 -8 5 -15 10 -15 6 0 10 5 10 12 0 6 3 9 6 6 9 -10 -19 -46
-39 -52 -17 -4 -18 -1 -13 30 6 27 4 34 -9 34 -8 0 -15 -6 -15 -14z"/>
<path d="M472 118 c-7 -7 -12 -27 -12 -46 0 -30 2 -33 27 -30 17 2 32 12 39
27 7 13 18 28 26 33 10 8 9 8 -4 4 -12 -3 -18 0 -18 9 0 18 -41 20 -58 3z m29
-51 c-13 -13 -15 11 -4 40 7 16 8 15 11 -6 2 -13 -1 -28 -7 -34z"/>
</g>
</svg>
